<svg width="140" height="156" viewBox="0 0 140 156" fill="none" xmlns="http://www.w3.org/2000/svg">
<path opacity="0.99" d="M46.1358 145.681L62.333 154.619C65.3812 156.298 69.0753 156.35 72.1753 154.722L125.158 125.428C128.698 123.465 131.203 120.081 132.056 116.128L132.805 112.666H112.991H75.3011C71.7103 112.666 68.5587 110.29 67.5512 106.854L63.7021 93.6019L39.2642 110.057C36.991 111.582 36.0093 114.449 36.8618 117.032L46.1358 145.681Z" fill="#2D337B"/>
<path opacity="0.99" d="M13.7659 126.125L46.1344 145.707L36.9896 117.549C36.0596 114.656 37.1446 111.504 39.6504 109.799L63.6749 93.6019L46.1086 33.4114L20.3791 44.132C15.9616 45.9661 12.6809 49.7894 11.5442 54.4393L0.384443 99.6209C-0.442208 103.005 0.0744502 106.596 1.83108 109.618L8.28929 120.597C9.65843 122.87 11.5184 124.782 13.7659 126.125Z" fill="#E51148"/>
<path d="M47.8127 104.323L36.7562 65.1343C35.9554 62.3443 37.2729 59.3736 39.8562 58.0561L51.5843 52.0629L63.6999 93.6279L47.8127 104.323Z" fill="#F0E400"/>
<path opacity="0.99" d="M46.1334 33.4375L49.5433 45.1398L67.7813 107.707C68.6338 110.652 71.3462 112.667 74.3945 112.667H112.963H132.777L139.08 86.7307C139.519 84.9224 139.519 83.0624 139.08 81.2541L132.906 55.8088C132.828 55.4729 132.725 55.1371 132.622 54.8013L126.06 35.4267C125.079 32.5592 123.012 30.2084 120.299 28.8651L62.3306 0.242327C60.5739 -0.635989 58.6107 1.01731 59.179 2.90311L64.5522 20.5986C65.3272 23.2077 64.0356 25.9718 61.5298 27.0052L46.1334 33.4375Z" fill="#AD2685"/>
</svg>
