<svg width="216" height="31" viewBox="0 0 216 31" fill="none" xmlns="http://www.w3.org/2000/svg">
<path d="M0 21.0695V0H6.07809V21.0695C6.07809 22.7019 7.41935 24.0314 9.06621 24.0314H42.4618V30.0897H9.06621C4.0747 30.0897 0 26.0003 0 21.0695Z" fill="#05D35D"/>
<path d="M52.7344 16.3743V30.0897H46.6224V16.3743L28.1504 0H37.2506L49.6614 11.006L62.1062 0H71.2064L52.7344 16.3743Z" fill="#05D35D"/>
<path d="M107.64 0H113.752V24.8392C113.701 27.7169 111.324 30.0897 108.421 30.0897C107.249 30.0897 106.078 29.6522 105.212 28.979L77.2832 6.88294V30.0897H71.2051V5.25056C71.2051 2.32236 73.582 0 76.5361 0C77.7076 0 78.8282 0.38706 79.745 1.11069L107.64 23.2068V0Z" fill="#05D35D"/>
<path d="M154.517 0H160.629V24.8392C160.578 27.7169 158.201 30.0897 155.298 30.0897C154.126 30.0897 152.955 29.6522 152.089 28.979L124.16 6.88294V30.0897H118.082V5.25056C118.082 2.32236 120.459 0 123.413 0C124.585 0 125.705 0.38706 126.622 1.11069L154.5 23.2068V0H154.517Z" fill="#05D35D"/>
<path d="M171.036 9.02018V21.0527C171.036 22.6851 172.428 24.0146 174.075 24.0146H207.47V30.0729H174.075C169.049 30.0729 164.975 25.9835 164.975 21.0527V9.02018C164.975 4.03889 169.049 0 174.075 0H207.47V6.02468H174.075C172.428 6.02468 171.036 7.3878 171.036 9.02018Z" fill="#05D35D"/>
<path d="M215.246 27.1952C215.246 27.6832 215.161 28.1039 215.008 28.4742C214.856 28.8444 214.635 29.1641 214.363 29.4334C214.092 29.6858 213.786 29.8878 213.429 30.0224C213.073 30.157 212.699 30.2243 212.309 30.2243C211.918 30.2243 211.562 30.157 211.205 30.0224C210.849 29.8878 210.543 29.6858 210.272 29.4334C210 29.181 209.796 28.8612 209.626 28.4742C209.457 28.0871 209.389 27.6664 209.389 27.1952C209.389 26.724 209.474 26.2864 209.626 25.9162C209.779 25.546 210 25.2262 210.272 24.957C210.543 24.7045 210.849 24.5026 211.205 24.368C211.562 24.2333 211.918 24.166 212.309 24.166C212.699 24.166 213.073 24.2333 213.429 24.368C213.786 24.5026 214.092 24.7045 214.363 24.957C214.635 25.2094 214.839 25.5291 215.008 25.9162C215.178 26.3033 215.246 26.724 215.246 27.1952ZM214.499 27.1952C214.499 26.8418 214.448 26.522 214.346 26.2359C214.244 25.9499 214.092 25.6974 213.888 25.4955C213.701 25.2935 213.463 25.1253 213.192 25.0243C212.92 24.9065 212.631 24.856 212.309 24.856C211.986 24.856 211.698 24.9065 211.426 25.0243C211.154 25.1421 210.934 25.2935 210.747 25.4955C210.56 25.6974 210.407 25.9499 210.305 26.2359C210.204 26.522 210.153 26.8418 210.153 27.1952C210.153 27.5486 210.204 27.8683 210.305 28.1544C210.407 28.4405 210.56 28.6929 210.747 28.8949C210.934 29.0968 211.171 29.2651 211.426 29.3661C211.698 29.4839 211.986 29.5344 212.309 29.5344C212.631 29.5344 212.92 29.4839 213.192 29.3661C213.463 29.2483 213.684 29.0968 213.888 28.8949C214.075 28.6929 214.227 28.4405 214.346 28.1544C214.448 27.8683 214.499 27.5486 214.499 27.1952ZM213.005 28.7602C212.886 28.5246 212.784 28.3059 212.665 28.1208C212.547 27.9356 212.445 27.7674 212.343 27.6327H211.884V28.7602H211.171V25.6974C211.341 25.6469 211.511 25.6301 211.681 25.6133C211.85 25.5965 212.003 25.5965 212.122 25.5965C212.597 25.5965 212.937 25.6806 213.192 25.8489C213.429 26.0172 213.548 26.2864 213.548 26.6398C213.548 26.8249 213.497 26.9932 213.412 27.1447C213.328 27.2793 213.192 27.3971 213.005 27.4813C213.124 27.6496 213.243 27.8347 213.361 28.0366C213.497 28.2554 213.616 28.491 213.735 28.7771H213.005V28.7602ZM211.884 27.0606H212.122C212.343 27.0606 212.513 27.0269 212.648 26.9764C212.784 26.9259 212.835 26.7913 212.835 26.623C212.835 26.4715 212.767 26.3537 212.648 26.2864C212.53 26.2191 212.377 26.1855 212.19 26.1855C212.139 26.1855 212.088 26.1855 212.037 26.1855C211.986 26.1855 211.935 26.1855 211.867 26.2023V27.0606H211.884Z" fill="#05D35D"/>
</svg>
