<svg width="780" height="109" viewBox="0 0 780 109" fill="none" xmlns="http://www.w3.org/2000/svg">
<g clip-path="url(#clip0_2753_14083)">
<path d="M0.663025 75.595V0H22.6445V75.595C22.6445 81.4518 27.4951 86.2218 33.451 86.2218H154.226V107.958H33.451C15.3992 107.958 0.663025 93.2862 0.663025 75.595Z" fill="#05D35D"/>
<path d="M191.373 58.7492V107.958H169.269V58.7492L102.465 0H135.376L180.26 39.4881L225.267 0H258.177L191.373 58.7492Z" fill="#05D35D"/>
<path d="M389.943 0H412.047V89.12C411.863 99.4449 403.267 107.958 392.767 107.958C388.531 107.958 384.294 106.389 381.163 103.973L280.159 24.6952V107.958H258.177V18.8384C258.177 8.33236 266.773 0 277.457 0C281.694 0 285.746 1.38873 289.062 3.98504L389.943 83.2632V0Z" fill="#05D35D"/>
<path d="M559.47 0H581.574V89.12C581.39 99.4449 572.794 107.958 562.295 107.958C558.058 107.958 553.821 106.389 550.69 103.973L449.686 24.6952V107.958H427.704V18.8384C427.704 8.33236 436.301 0 446.984 0C451.221 0 455.273 1.38873 458.589 3.98504L559.409 83.2632V0H559.47Z" fill="#05D35D"/>
<path d="M619.213 32.3634V75.5346C619.213 81.3914 624.248 86.1614 630.204 86.1614H750.979V107.898H630.204C612.029 107.898 597.293 93.2258 597.293 75.5346V32.3634C597.293 14.4911 612.029 0 630.204 0H750.979V21.6158H630.204C624.248 21.6158 619.213 26.5066 619.213 32.3634Z" fill="#05D35D"/>
<path d="M779.1 97.5731C779.1 99.3241 778.793 100.834 778.241 102.162C777.688 103.49 776.89 104.638 775.907 105.604C774.925 106.509 773.82 107.234 772.53 107.717C771.241 108.2 769.89 108.441 768.478 108.441C767.066 108.441 765.776 108.2 764.487 107.717C763.198 107.234 762.092 106.509 761.11 105.604C760.128 104.698 759.391 103.551 758.777 102.162C758.163 100.773 757.917 99.2637 757.917 97.5731C757.917 95.8825 758.224 94.3126 758.777 92.9843C759.329 91.6559 760.128 90.5087 761.11 89.5427C762.092 88.637 763.198 87.9124 764.487 87.4294C765.776 86.9463 767.066 86.7048 768.478 86.7048C769.89 86.7048 771.241 86.9463 772.53 87.4294C773.82 87.9124 774.925 88.637 775.907 89.5427C776.89 90.4483 777.627 91.5956 778.241 92.9843C778.855 94.373 779.1 95.8825 779.1 97.5731ZM776.399 97.5731C776.399 96.3052 776.214 95.1579 775.846 94.1315C775.478 93.105 774.925 92.1993 774.188 91.4748C773.513 90.7502 772.653 90.1464 771.671 89.7842C770.688 89.3615 769.645 89.1804 768.478 89.1804C767.311 89.1804 766.268 89.3615 765.285 89.7842C764.303 90.2068 763.505 90.7502 762.829 91.4748C762.154 92.1993 761.601 93.105 761.233 94.1315C760.864 95.1579 760.68 96.3052 760.68 97.5731C760.68 98.8411 760.864 99.9883 761.233 101.015C761.601 102.041 762.154 102.947 762.829 103.671C763.505 104.396 764.364 105 765.285 105.362C766.268 105.785 767.311 105.966 768.478 105.966C769.645 105.966 770.688 105.785 771.671 105.362C772.653 104.939 773.451 104.396 774.188 103.671C774.864 102.947 775.416 102.041 775.846 101.015C776.214 99.9883 776.399 98.8411 776.399 97.5731ZM770.995 103.188C770.566 102.343 770.197 101.558 769.767 100.894C769.338 100.23 768.969 99.626 768.601 99.143H766.943V103.188H764.364V92.1993C764.978 92.0182 765.592 91.9578 766.206 91.8974C766.82 91.8371 767.373 91.8371 767.803 91.8371C769.522 91.8371 770.75 92.139 771.671 92.7428C772.53 93.3466 772.96 94.3126 772.96 95.5806C772.96 96.2448 772.776 96.8486 772.469 97.392C772.162 97.875 771.671 98.2977 770.995 98.5996C771.425 99.2034 771.855 99.8675 772.285 100.592C772.776 101.377 773.206 102.222 773.636 103.249H770.995V103.188ZM766.943 97.0901H767.803C768.601 97.0901 769.215 96.9693 769.706 96.7882C770.197 96.607 770.381 96.124 770.381 95.5202C770.381 94.9768 770.136 94.5541 769.706 94.3126C769.276 94.0711 768.724 93.9504 768.048 93.9504C767.864 93.9504 767.68 93.9504 767.496 93.9504C767.311 93.9504 767.127 93.9503 766.882 94.0107V97.0901H766.943Z" fill="#05D35D"/>
</g>
<defs>
<clipPath id="clip0_2753_14083">
<rect width="778.437" height="108.502" fill="white" transform="translate(0.663025)"/>
</clipPath>
</defs>
</svg>
